HIERARCHY
ROOT Hips
{
	OFFSET 0.000000 0.000000 0.000000
	CHANNELS 6 Xposition Yposition Zposition Zrotation Yrotation Xrotation 
	JOINT LHipJoint
	{
		OFFSET 0.000000 0.000000 0.000000
		CHANNELS 3 Zrotation Yrotation Xrotation
		JOINT LeftUpLeg
		{
			OFFSET 1.363060 -1.794630 0.839290
			CHANNELS 3 Zrotation Yrotation Xrotation
			JOINT LeftLeg
			{
				OFFSET 2.448110 -6.726130 0.000000
				CHANNELS 3 Zrotation Yrotation Xrotation
				JOINT LeftFoot
				{
					OFFSET 2.562200 -7.039590 0.000000
					CHANNELS 3 Zrotation Yrotation Xrotation
					JOINT LeftToeBase
					{
						OFFSET 0.157640 -0.433110 2.322550
						CHANNELS 3 Zrotation Yrotation Xrotation
						End Site
						{
							OFFSET 0.000000 0.000000 0.000000
						}
					}
				}
			}
		}
	}
	JOINT RHipJoint
	{
		OFFSET 0.000000 0.000000 0.000000
		CHANNELS 3 Zrotation Yrotation Xrotation
		JOINT RightUpLeg
		{
			OFFSET -1.305520 -1.794630 0.839290
			CHANNELS 3 Zrotation Yrotation Xrotation
			JOINT RightLeg
			{
				OFFSET -2.542530 -6.985550 0.000000
				CHANNELS 3 Zrotation Yrotation Xrotation
				JOINT RightFoot
				{
					OFFSET -2.568260 -7.056230 0.000000
					CHANNELS 3 Zrotation Yrotation Xrotation
					JOINT RightToeBase
					{
						OFFSET -0.164730 -0.452590 2.363150
						CHANNELS 3 Zrotation Yrotation Xrotation
						End Site
						{
							OFFSET 0.000000 0.000000 0.000000
						}
					}
				}
			}
		}
	}
	JOINT LowerBack
	{
		OFFSET 0.000000 0.000000 0.000000
		CHANNELS 3 Zrotation Yrotation Xrotation
		JOINT Spine
		{
			OFFSET 0.028270 2.035590 -0.193380
			CHANNELS 3 Zrotation Yrotation Xrotation
			JOINT Spine1
			{
				OFFSET 0.056720 2.048850 -0.042750
				CHANNELS 3 Zrotation Yrotation Xrotation
				JOINT Neck
				{
					OFFSET 0.000000 0.000000 0.000000
					CHANNELS 3 Zrotation Yrotation Xrotation
					JOINT Neck1
					{
						OFFSET -0.054170 1.746240 0.172020
						CHANNELS 3 Zrotation Yrotation Xrotation
						JOINT Head
						{
							OFFSET 0.104070 1.761360 -0.123970
							CHANNELS 3 Zrotation Yrotation Xrotation
							End Site
							{
								OFFSET 0.000000 0.000000 0.000000
							}
						}
					}
				}
				JOINT LeftShoulder
				{
					OFFSET 0.000000 0.000000 0.000000
					CHANNELS 3 Zrotation Yrotation Xrotation
					JOINT LeftArm
					{
						OFFSET 3.362410 1.200890 -0.311210
						CHANNELS 3 Zrotation Yrotation Xrotation
						JOINT LeftForeArm
						{
							OFFSET 4.983000 -0.000000 -0.000000
							CHANNELS 3 Zrotation Yrotation Xrotation
							JOINT LeftHand
							{
								OFFSET 3.483560 -0.000000 -0.000000
								CHANNELS 3 Zrotation Yrotation Xrotation
								JOINT LeftFingerBase
								{
									OFFSET 0.000000 0.000000 0.000000
									CHANNELS 3 Zrotation Yrotation Xrotation
									JOINT LeftHandIndex1
									{
										OFFSET 0.715260 -0.000000 -0.000000
										CHANNELS 3 Zrotation Yrotation Xrotation
										End Site
										{
											OFFSET 0.000000 0.000000 0.000000
										}
									}
								}
								JOINT LThumb
								{
									OFFSET 0.000000 0.000000 0.000000
									CHANNELS 3 Zrotation Yrotation Xrotation
									End Site
									{
										OFFSET 0.000000 0.000000 0.000000
									}
								}
							}
						}
					}
				}
				JOINT RightShoulder
				{
					OFFSET 0.000000 0.000000 0.000000
					CHANNELS 3 Zrotation Yrotation Xrotation
					JOINT RightArm
					{
						OFFSET -3.136600 1.374050 -0.404650
						CHANNELS 3 Zrotation Yrotation Xrotation
						JOINT RightForeArm
						{
							OFFSET -5.241900 -0.000000 -0.000000
							CHANNELS 3 Zrotation Yrotation Xrotation
							JOINT RightHand
							{
								OFFSET -3.444170 -0.000000 -0.000000
								CHANNELS 3 Zrotation Yrotation Xrotation
								JOINT RightFingerBase
								{
									OFFSET 0.000000 0.000000 0.000000
									CHANNELS 3 Zrotation Yrotation Xrotation
									JOINT RightHandIndex1
									{
										OFFSET -0.622530 -0.000000 -0.000000
										CHANNELS 3 Zrotation Yrotation Xrotation
										End Site
										{
											OFFSET 0.000000 0.000000 0.000000
										}
									}
								}
								JOINT RThumb
								{
									OFFSET 0.000000 0.000000 0.000000
									CHANNELS 3 Zrotation Yrotation Xrotation
									End Site
									{
										OFFSET 0.000000 0.000000 0.000000
									}
								}
							}
						}
					}
				}
			}
		}
	}
}
MOTION
Frames: 11
Frame Time: 0.008333
0.335214 17.582314 -20.826646 4.048845 4.858644 4.816381 1.448381 0.812352 0.063677 -31.322226 -3.543833 -1.456751 0.755704 7.153902 20.234443 1.379012 -7.029574 -9.643763 0.390900 4.014900 11.118600 -3.230197 -1.053133 0.006886 14.417651 8.269893 -34.759391 -2.877699 -10.961374 31.048112 0.264761 -7.215360 -13.557597 -0.020300 -0.919400 2.527000 -6.532551 -0.722979 4.044104 -0.171049 -1.148169 -1.647241 3.588628 -0.891454 -0.523003 -3.081198 -1.775533 -12.077576 2.252780 -1.918329 15.538675 -0.344900 -0.915900 9.163900 1.085557 4.533454 -0.699549 -87.347171 0.035235 26.647546 19.641829 -31.031658 -5.137874 0.467640 0.050779 3.357398 5.399370 43.276564 3.385000 -7.125000 0.000000 0.000000 -45.606000 68.097700 -27.406300 -0.604200 -4.742796 -1.601340 86.788842 0.094917 0.834551 -13.073088 23.779975 -2.619755 1.023741 0.278740 -9.355595 -12.298085 22.167246 -5.074000 7.125000 0.000000 0.000000 9.730500 -7.731300 8.459100 
0.334301 17.583430 -20.710914 4.502312 5.093366 4.959820 1.452000 0.827600 0.064998 -31.776953 -3.357329 -0.691548 0.664490 6.862835 19.414601 1.376706 -7.201837 -9.410186 0.396100 4.040900 11.191800 -3.248359 -1.067215 0.022900 13.852332 8.397688 -34.725513 -2.537650 -10.358663 29.072663 0.300020 -7.706162 -14.007644 -0.007400 -0.557300 1.531300 -7.052729 -0.824623 3.851103 -0.151625 -1.293081 -1.643634 3.911469 -0.973763 -0.383106 -2.976619 -1.912735 -12.121839 1.893453 -2.081151 15.630019 -0.542000 -1.015400 9.202300 1.098494 4.532859 -0.689589 -87.637752 -0.177192 26.550026 19.487775 -30.874096 -5.084615 0.469498 0.042270 3.755069 5.593335 42.001232 3.433600 -7.125000 0.000000 0.000000 -43.148200 67.277600 -24.951100 -0.592130 -4.766065 -1.608528 86.717673 0.167378 0.837275 -13.112281 23.830785 -2.626034 1.029493 0.291702 -8.970475 -12.832675 22.102121 -5.266400 7.125000 0.000000 0.000000 9.386100 -7.757300 8.146300 
0.322728 17.587491 -20.615893 4.274630 5.134151 5.048088 1.461439 0.847530 0.071336 -31.477772 -3.331171 -0.082340 0.586162 6.631098 18.768126 1.355466 -7.089408 -9.295060 0.377900 3.948200 10.931000 -3.303968 -1.083783 0.046469 14.041566 9.144676 -34.511227 -2.194985 -9.721604 27.005773 0.428319 -8.746507 -14.188472 -0.021300 -0.942900 2.591700 -6.830052 -0.840962 4.080081 -0.111423 -1.332109 -1.684118 3.915439 -0.981376 -0.603594 -2.878497 -1.948049 -12.213003 1.823244 -2.141792 15.622524 -0.600200 -1.043800 9.236500 1.108766 4.510348 -0.700771 -87.597755 -0.058703 26.868076 19.636656 -31.038173 -5.148418 0.464901 0.050429 3.447659 5.184014 42.878907 3.214800 -7.125000 0.000000 0.000000 -45.073900 67.758600 -26.710100 -0.581652 -4.749745 -1.619471 86.726090 0.242947 1.245619 -13.099967 23.790955 -2.609983 1.040615 0.265226 -9.235648 -12.408484 22.689304 -5.239800 7.125000 0.000000 0.000000 9.672800 -7.184100 8.512500 
0.329428 17.591044 -20.509501 4.504711 5.205721 5.388249 1.469458 0.861244 0.067801 -31.716951 -3.107035 0.375072 0.486215 6.300140 17.836148 1.316300 -7.132249 -8.772590 0.375300 3.934600 10.892600 -3.323574 -1.101886 0.084966 13.658952 9.460416 -34.758849 -1.909892 -9.143271 25.167555 0.512416 -9.503828 -14.496742 -0.004400 -0.426600 1.172100 -6.990548 -0.879592 3.606408 -0.110917 -1.363653 -1.724516 3.999816 -1.001579 -0.458303 -2.917630 -1.992052 -12.281650 1.769739 -2.174884 15.792071 -0.618100 -1.064100 9.313000 1.106197 4.525247 -0.705238 -87.671042 -0.108560 27.190687 19.512925 -30.900685 -5.094483 0.467943 0.043138 3.731900 5.800772 42.451766 3.605100 -7.125000 0.000000 0.000000 -43.734100 67.660000 -25.703700 -0.578123 -4.758138 -1.619559 86.701210 0.410032 0.682851 -12.898368 23.464149 -2.498323 1.059692 0.248148 -8.923666 -12.548974 23.138795 -5.404300 7.125000 0.000000 0.000000 9.594600 -6.705500 8.532200 
0.326078 17.596425 -20.409810 4.586749 4.949945 5.625152 1.478974 0.874139 0.067647 -31.824996 -2.942672 0.836083 0.405100 6.036673 17.096563 1.298211 -7.055383 -8.665665 0.435200 4.233500 11.734500 -3.363526 -1.110569 0.125906 13.346938 10.419562 -34.673991 -1.637409 -8.545582 23.298160 0.622754 -10.339560 -14.594354 -0.009900 -0.643100 1.767200 -7.131567 -0.780962 3.603881 -0.102718 -1.247885 -1.768394 4.137963 -0.937763 -0.585588 -3.011730 -2.096178 -12.420388 1.966193 -2.314004 15.686927 -0.542300 -1.118400 9.316000 1.108542 4.519282 -0.711974 -87.743563 -0.056570 27.486605 19.547649 -30.942982 -5.124902 0.465143 0.045402 3.587484 5.363109 41.855073 3.272300 -7.125000 0.000000 0.000000 -43.112100 67.102500 -24.762700 -0.578731 -4.740311 -1.628155 86.739929 0.497558 0.788965 -13.023153 23.663111 -2.564636 1.049178 0.248149 -8.974552 -12.314720 22.972669 -5.268900 7.125000 0.000000 0.000000 9.740100 -6.898300 8.628500 
0.323032 17.601298 -20.300779 4.609818 5.167814 5.609808 1.489005 0.894022 0.074055 -31.746841 -2.431340 1.625204 0.343134 5.754295 16.332320 1.333554 -7.475690 -8.530816 0.422400 4.171400 11.559400 -3.403247 -1.111423 0.132946 13.026419 11.207908 -34.188545 -1.391422 -7.981053 21.570002 0.787519 -11.719282 -15.275027 -0.000000 0.003900 -0.010600 -7.111931 -0.861184 3.647057 -0.089951 -1.357059 -1.771564 4.154820 -0.992553 -0.629293 -3.025559 -2.038861 -12.142235 2.101498 -2.263873 15.661725 -0.478600 -1.080300 9.236500 1.112572 4.520914 -0.706134 -87.755579 -0.057478 27.780881 19.573251 -30.971593 -5.131989 0.464731 0.046409 3.570394 5.489681 42.354246 3.389900 -7.125000 0.000000 0.000000 -43.852300 67.493500 -25.625900 -0.581838 -4.740969 -1.624505 86.752837 0.294744 1.331488 -13.100011 23.764338 -2.590347 1.051689 0.276934 -9.368814 -12.871417 22.869725 -5.469100 7.125000 0.000000 0.000000 9.382200 -6.959100 8.291100 
0.315621 17.609825 -20.201189 4.645475 5.125236 6.066186 1.490309 0.897095 0.068535 -31.748508 -2.442180 1.975011 0.259237 5.444023 15.467241 1.304188 -7.490075 -8.145966 0.487800 4.478400 12.426500 -3.426013 -1.109577 0.191248 12.388609 12.521761 -34.320829 -1.181679 -7.499502 20.082820 0.859036 -12.627002 -16.508459 -0.001900 -0.285100 0.783400 -7.171704 -0.862135 3.344147 -0.063410 -1.354443 -1.850226 4.251246 -0.982751 -0.691052 -2.837987 -2.088774 -12.119863 1.772544 -2.334714 15.806487 -0.662600 -1.127200 9.290700 1.132604 4.506732 -0.714913 -87.739801 0.038565 28.083223 19.610612 -31.019358 -5.148602 0.463020 0.048288 3.370982 5.844235 42.744782 3.657900 -7.125000 0.000000 0.000000 -44.209000 67.877800 -26.232400 -0.568126 -4.748194 -1.640315 86.768669 0.313026 1.490425 -13.166107 23.860298 -2.611599 1.058548 0.269819 -9.532071 -12.798503 23.180428 -5.514400 7.125000 0.000000 0.000000 9.438400 -6.645500 8.400400 
0.311256 17.604039 -20.097031 4.854621 5.377555 6.193945 1.499981 0.909176 0.067668 -31.897781 -2.342031 2.646975 0.209156 5.203093 14.816082 1.300367 -7.720346 -7.806528 0.524300 4.640500 12.886000 -3.445254 -1.112091 0.211756 11.814199 13.101553 -34.180113 -0.999379 -7.016875 18.642579 0.997961 -13.756295 -17.165955 -0.002400 0.315800 -0.867600 -7.385480 -0.915549 3.405932 -0.049712 -1.442351 -1.868513 4.392720 -1.023770 -0.764759 -2.725256 -2.109667 -12.069528 1.631234 -2.379244 15.721484 -0.756500 -1.153200 9.246300 1.148451 4.495696 -0.711036 -87.750688 0.009839 28.585157 19.581492 -30.991154 -5.148179 0.461547 0.049558 3.573105 5.248714 42.132266 3.215200 -7.125000 0.000000 0.000000 -43.686300 67.261100 -25.294100 -0.568984 -4.758950 -1.654393 86.826833 -0.091394 1.642489 -13.526766 24.452442 -2.794862 1.045183 0.271099 -9.784080 -12.385520 23.080308 -5.319500 7.125000 0.000000 0.000000 9.699400 -6.791400 8.611800 
0.314302 17.600485 -19.989828 5.251379 5.329949 6.570573 1.509625 0.913974 0.056409 -32.411809 -2.574496 3.138258 0.142827 4.983718 14.202500 1.237589 -7.303466 -7.610515 0.542500 4.719100 13.109100 -3.443053 -1.115968 0.247937 11.084741 13.559076 -34.433669 -0.871864 -6.640858 17.526395 1.046121 -14.184701 -17.480233 -0.001000 0.201000 -0.552200 -7.750306 -0.824327 3.024459 -0.082160 -1.305759 -1.877663 4.540940 -0.962908 -0.621821 -3.098297 -2.228393 -12.007628 2.126541 -2.520910 15.459069 -0.498300 -1.202900 9.120200 1.124492 4.516463 -0.710203 -87.938049 -0.098892 29.039407 19.553388 -30.954520 -5.121976 0.460677 0.054773 3.465799 4.698343 43.069168 2.896400 -7.125000 0.000000 0.000000 -45.863500 67.732600 -27.228300 -0.572545 -4.749203 -1.629841 86.829428 0.504812 0.310611 -13.099468 23.775020 -2.570778 1.071438 0.224801 -9.012461 -12.236877 23.804856 -5.429200 7.125000 0.000000 0.000000 9.814200 -6.050300 8.859200 
0.306282 17.599369 -19.889933 4.997456 5.369275 6.640494 1.512768 0.925635 0.063548 -32.039270 -2.189656 3.650257 0.099710 4.769954 13.633191 1.244108 -7.415748 -7.529049 0.476500 4.426800 12.280500 -3.461278 -1.105976 0.266345 11.041343 14.402127 -34.286293 -0.762487 -6.356016 16.673157 1.045475 -14.696623 -18.889978 -0.002200 0.304000 -0.835300 -7.307028 -1.050636 3.252796 -0.058069 -1.613967 -1.928258 4.308759 -1.106275 -0.816770 -2.701260 -2.221010 -12.249889 1.926671 -2.569445 15.672506 -0.664800 -1.209500 9.274200 1.130945 4.499596 -0.727071 -87.827297 -0.065866 28.481451 19.438054 -30.798458 -5.063863 0.462366 0.047447 3.647217 5.443365 42.486029 3.368600 -7.125000 0.000000 0.000000 -44.123500 67.570500 -25.882200 -0.569489 -4.745213 -1.653734 87.035161 0.215658 1.543747 -13.350793 24.155165 -2.684348 1.072286 0.234437 -9.245054 -12.436540 23.924409 -5.538600 7.125000 0.000000 0.000000 9.694500 -5.913200 8.773700 
0.292171 17.590435 -19.786384 5.090639 5.412906 6.795762 1.518058 0.933985 0.060537 -32.042113 -1.898289 4.024624 0.056371 4.557551 13.060065 1.211631 -7.382194 -7.156708 0.476800 4.428300 12.285000 -3.465223 -1.106788 0.291302 10.750581 14.894418 -34.468296 -0.703472 -6.202125 16.207758 1.065946 -15.052552 -19.495204 -0.030200 1.122500 -3.085900 -7.483974 -1.007044 3.255310 -0.048108 -1.568704 -1.951236 4.453828 -1.078908 -0.895554 -2.762431 -2.155008 -12.135704 1.935904 -2.471122 15.615455 -0.641400 -1.168800 9.226700 1.136772 4.491696 -0.727502 -87.822249 0.083260 28.958316 19.519761 -30.900991 -5.110778 0.459813 0.051293 3.775602 4.786620 42.499043 2.925900 -7.125000 0.000000 0.000000 -44.758300 67.371100 -26.120400 -0.555889 -4.743393 -1.646388 87.106599 0.409597 0.794985 -13.256589 24.008077 -2.655852 1.056295 0.239929 -8.892562 -12.363421 23.358745 -5.376200 7.125000 0.000000 0.000000 9.722900 -6.500300 8.688900 
